<svg width="1320" height="1325" xmlns="http://www.w3.org/2000/svg" xmlns:xlink="http://www.w3.org/1999/xlink" xml:space="preserve" overflow="hidden"><defs><linearGradient x1="1333.35" y1="843.208" x2="1333.35" y2="1471.94" gradientUnits="userSpaceOnUse" spreadMethod="reflect" id="stroke0"><stop offset="0" stop-color="#64B5F6" stop-opacity="1"/><stop offset="0.2" stop-color="#64B5F6" stop-opacity="1"/><stop offset="0.5" stop-color="#2196F3" stop-opacity="1"/><stop offset="0.7" stop-color="#1565C0" stop-opacity="1"/><stop offset="1" stop-color="#1565C0" stop-opacity="1"/></linearGradient><linearGradient x1="942.816" y1="1081.41" x2="1257.18" y2="767.047" gradientUnits="userSpaceOnUse" spreadMethod="reflect" id="stroke1"><stop offset="0" stop-color="#FFD54F" stop-opacity="1"/><stop offset="0.25" stop-color="#FFD54F" stop-opacity="1"/><stop offset="0.8" stop-color="#64B5F6" stop-opacity="1"/><stop offset="1" stop-color="#64B5F6" stop-opacity="1"/></linearGradient><linearGradient x1="866.655" y1="1471.94" x2="866.655" y2="843.208" gradientUnits="userSpaceOnUse" spreadMethod="reflect" id="stroke2"><stop offset="0" stop-color="#FF8F00" stop-opacity="1"/><stop offset="0.3" stop-color="#FF8F00" stop-opacity="1"/><stop offset="0.5" stop-color="#FFC107" stop-opacity="1"/><stop offset="0.8" stop-color="#FFD54F" stop-opacity="1"/><stop offset="1" stop-color="#FFD54F" stop-opacity="1"/></linearGradient></defs><g transform="translate(-440 -577)"><g><path d="M1333.35 924.231C1462.22 1053.1 1462.22 1262.05 1333.35 1390.92" stroke="url(#stroke0)" stroke-width="114.583" stroke-linecap="round" stroke-linejoin="round" stroke-miterlimit="10" fill="none" fill-rule="evenodd"/><path d="M866.655 924.231C995.528 795.358 1204.47 795.358 1333.35 924.231" stroke="url(#stroke1)" stroke-width="114.583" stroke-linecap="round" stroke-linejoin="round" stroke-miterlimit="10" fill="none" fill-rule="evenodd"/><path d="M866.655 1390.92C737.782 1262.05 737.782 1053.1 866.655 924.231" stroke="url(#stroke2)" stroke-width="114.583" stroke-linecap="round" stroke-linejoin="round" stroke-miterlimit="10" fill="none" fill-rule="evenodd"/><path d="M645 1467.5C645 1381.07 715.067 1311 801.5 1311 887.933 1311 958 1381.07 958 1467.5 958 1553.93 887.933 1624 801.5 1624 715.067 1624 645 1553.93 645 1467.5Z" fill="#FF8F00" fill-rule="evenodd" fill-opacity="1"/><path d="M1242 1467.5C1242 1381.07 1312.07 1311 1398.5 1311 1484.93 1311 1555 1381.07 1555 1467.5 1555 1553.93 1484.93 1624 1398.5 1624 1312.07 1624 1242 1553.93 1242 1467.5Z" fill="#1565C0" fill-rule="evenodd" fill-opacity="1"/></g></g></svg>