<svg width="1320" height="1325" xmlns="http://www.w3.org/2000/svg" xmlns:xlink="http://www.w3.org/1999/xlink" xml:space="preserve" overflow="hidden"><defs><linearGradient x1="3533.35" y1="843.208" x2="3533.35" y2="1471.94" gradientUnits="userSpaceOnUse" spreadMethod="reflect" id="stroke0"><stop offset="0" stop-color="#64B5F6" stop-opacity="1"/><stop offset="0.2" stop-color="#64B5F6" stop-opacity="1"/><stop offset="0.5" stop-color="#2196F3" stop-opacity="1"/><stop offset="0.7" stop-color="#1565C0" stop-opacity="1"/><stop offset="1" stop-color="#1565C0" stop-opacity="1"/></linearGradient><linearGradient x1="3142.82" y1="1081.41" x2="3457.18" y2="767.047" gradientUnits="userSpaceOnUse" spreadMethod="reflect" id="stroke1"><stop offset="0" stop-color="#FFD54F" stop-opacity="1"/><stop offset="0.25" stop-color="#FFD54F" stop-opacity="1"/><stop offset="0.8" stop-color="#64B5F6" stop-opacity="1"/><stop offset="1" stop-color="#64B5F6" stop-opacity="1"/></linearGradient><linearGradient x1="3066.66" y1="1471.94" x2="3066.66" y2="843.208" gradientUnits="userSpaceOnUse" spreadMethod="reflect" id="stroke2"><stop offset="0" stop-color="#FF8F00" stop-opacity="1"/><stop offset="0.3" stop-color="#FF8F00" stop-opacity="1"/><stop offset="0.5" stop-color="#FFC107" stop-opacity="1"/><stop offset="0.8" stop-color="#FFD54F" stop-opacity="1"/><stop offset="1" stop-color="#FFD54F" stop-opacity="1"/></linearGradient></defs><g transform="translate(-2640 -577)"><g><path d="M2640 1238C2640 873.492 2935.49 578 3300 578 3664.51 578 3960 873.492 3960 1238 3960 1602.51 3664.51 1898 3300 1898 2935.49 1898 2640 1602.51 2640 1238Z" fill="#1E1E1E" fill-rule="evenodd" fill-opacity="1"/><path d="M3533.35 924.231C3662.22 1053.1 3662.22 1262.05 3533.35 1390.92" stroke="url(#stroke0)" stroke-width="114.583" stroke-linecap="round" stroke-linejoin="round" stroke-miterlimit="10" fill="none" fill-rule="evenodd"/><path d="M3066.65 924.231C3195.53 795.358 3404.47 795.358 3533.35 924.231" stroke="url(#stroke1)" stroke-width="114.583" stroke-linecap="round" stroke-linejoin="round" stroke-miterlimit="10" fill="none" fill-rule="evenodd"/><path d="M3066.66 1390.92C2937.78 1262.05 2937.78 1053.1 3066.66 924.231" stroke="url(#stroke2)" stroke-width="114.583" stroke-linecap="round" stroke-linejoin="round" stroke-miterlimit="10" fill="none" fill-rule="evenodd"/><path d="M2845 1467.5C2845 1381.07 2915.07 1311 3001.5 1311 3087.93 1311 3158 1381.07 3158 1467.5 3158 1553.93 3087.93 1624 3001.5 1624 2915.07 1624 2845 1553.93 2845 1467.5Z" fill="#FF8F00" fill-rule="evenodd" fill-opacity="1"/><path d="M3442 1467.5C3442 1381.07 3512.07 1311 3598.5 1311 3684.93 1311 3755 1381.07 3755 1467.5 3755 1553.93 3684.93 1624 3598.5 1624 3512.07 1624 3442 1553.93 3442 1467.5Z" fill="#1565C0" fill-rule="evenodd" fill-opacity="1"/></g></g></svg>